<svg width="99" height="30" viewBox="0 0 99 30" fill="none" xmlns="http://www.w3.org/2000/svg">
<g clip-path="url(#clip0_115_88)">
<path fill-rule="evenodd" clip-rule="evenodd" d="M0.535714 12.7041C0.240306 12.7041 0 12.4638 0 12.1683V10.3316C0 10.0362 0.240306 9.7959 0.535714 9.7959H2.37245C2.66786 9.7959 2.90816 10.0362 2.90816 10.3316V12.1683C2.90816 12.4638 2.66786 12.7041 2.37245 12.7041H0.535714Z" fill="#F2AF36"/>
<path fill-rule="evenodd" clip-rule="evenodd" d="M0.535714 19.5919C0.240306 19.5919 0 19.3516 0 19.0562V17.2194C0 16.924 0.240306 16.6837 0.535714 16.6837H2.37245C2.66786 16.6837 2.90816 16.924 2.90816 17.2194V19.0562C2.90816 19.3516 2.66786 19.5919 2.37245 19.5919H0.535714Z" fill="#F2AF36"/>
<path fill-rule="evenodd" clip-rule="evenodd" d="M21.199 23.7244C20.9036 23.7244 20.6633 23.4841 20.6633 23.1887V6.19892C20.6633 5.90351 20.9036 5.66321 21.199 5.66321H23.0358C23.3312 5.66321 23.5715 5.90351 23.5715 6.19892V23.1887C23.5715 23.4841 23.3312 23.7244 23.0358 23.7244H21.199Z" fill="#282828"/>
<path fill-rule="evenodd" clip-rule="evenodd" d="M32.2194 11.7857C31.924 11.7857 31.6837 11.5454 31.6837 11.2499V10.0255C31.6837 9.22372 31.0314 8.57137 30.2296 8.57137H25.1875C25.0288 8.57137 24.887 8.47663 24.8263 8.33015C24.7657 8.18367 24.7989 8.01637 24.9111 7.90433L26.6814 6.13387C26.985 5.83035 27.3885 5.66321 27.8179 5.66321H29.7487C30.1781 5.66321 30.5815 5.83035 30.885 6.13387L34.1212 9.37004C34.4247 9.67357 34.5919 10.0772 34.5919 10.5065V11.2499C34.5919 11.5454 34.3516 11.7857 34.0562 11.7857H32.2194Z" fill="#282828"/>
<path fill-rule="evenodd" clip-rule="evenodd" d="M12.7895 8.57137C12.6309 8.57137 12.4892 8.47663 12.4284 8.33015C12.3677 8.18367 12.4009 8.01637 12.5131 7.90433L14.2834 6.13387C14.5871 5.83035 14.9905 5.66321 15.4199 5.66321H17.5255C17.8209 5.66321 18.0612 5.90351 18.0612 6.19892V8.03566C18.0612 8.33107 17.8209 8.57137 17.5255 8.57137H12.7895Z" fill="#282828"/>
<mask id="mask0_115_88" style="mask-type:luminance" maskUnits="userSpaceOnUse" x="4" y="0" width="14" height="24">
<path d="M4.13257 0.153076H17.3724V23.7245H4.13257V0.153076Z" fill="white"/>
</mask>
<g mask="url(#mask0_115_88)">
<path fill-rule="evenodd" clip-rule="evenodd" d="M13.1084 23.7245C12.679 23.7245 12.2756 23.5574 11.9721 23.2538L8.73588 20.0177C8.43236 19.7141 8.26522 19.3105 8.26522 18.8812V8.57144H4.66828C4.37287 8.57144 4.13257 8.33114 4.13257 8.03573V6.19899C4.13257 5.90359 4.37287 5.66328 4.66828 5.66328H8.26522V0.68879C8.26522 0.393382 8.50553 0.153076 8.80094 0.153076H10.6377C10.9331 0.153076 11.1734 0.393382 11.1734 0.68879V19.3623C11.1734 20.164 11.8257 20.8163 12.6275 20.8163H16.8366C17.1321 20.8163 17.3724 21.0566 17.3724 21.3521V23.1888C17.3724 23.4842 17.1321 23.7245 16.8366 23.7245H13.1084Z" fill="#282828"/>
</g>
<mask id="mask1_115_88" style="mask-type:luminance" maskUnits="userSpaceOnUse" x="95" y="0" width="4" height="4">
<path d="M95.7397 0.153076H98.6479V3.06121H95.7397V0.153076Z" fill="white"/>
</mask>
<g mask="url(#mask1_115_88)">
<path fill-rule="evenodd" clip-rule="evenodd" d="M96.2755 3.06124C95.9801 3.06124 95.7397 2.82093 95.7397 2.52553V0.68879C95.7397 0.393382 95.9801 0.153076 96.2755 0.153076H98.1122C98.4076 0.153076 98.6479 0.393382 98.6479 0.68879V2.52553C98.6479 2.82093 98.4076 3.06124 98.1122 3.06124H96.2755Z" fill="#282828"/>
</g>
<path fill-rule="evenodd" clip-rule="evenodd" d="M93.0611 29.9287C92.7657 29.9287 92.5254 29.6884 92.5254 29.393V27.5563C92.5254 27.2609 92.7657 27.0206 93.0611 27.0206H94.2856C95.0873 27.0206 95.7397 26.3682 95.7397 25.5665V6.19904C95.7397 5.90364 95.98 5.66333 96.2754 5.66333H98.1121C98.4075 5.66333 98.6478 5.90364 98.6478 6.19904V25.0854C98.6478 25.5148 98.4807 25.9184 98.1772 26.2219L94.941 29.4581C94.8683 29.5308 94.8091 29.5967 94.7564 29.6554C94.573 29.8599 94.5112 29.9287 94.2091 29.9287H93.0611Z" fill="#282828"/>
<path fill-rule="evenodd" clip-rule="evenodd" d="M64.4403 23.7244C64.011 23.7244 63.6075 23.5573 63.3039 23.2538L56.9436 16.8951C56.64 16.5915 56.4729 16.188 56.4729 15.7587V6.19892C56.4729 5.90351 56.7134 5.66321 57.0086 5.66321H58.8453C59.1408 5.66321 59.3811 5.90351 59.3811 6.19892V15.7956C59.3811 16.4702 59.6439 17.1045 60.1208 17.5813L62.6004 20.0762C63.0776 20.5535 63.7118 20.8163 64.3865 20.8163H65.0475C65.7222 20.8163 66.3565 20.5535 66.8333 20.0765L69.3135 17.581C69.7901 17.1045 70.053 16.4702 70.053 15.7956V6.19892C70.053 5.90351 70.2933 5.66321 70.5887 5.66321H72.4254C72.7208 5.66321 72.9611 5.90351 72.9611 6.19892V15.7587C72.9611 16.188 72.794 16.5915 72.4905 16.8951L66.1301 23.2538C65.8266 23.5573 65.423 23.7244 64.9937 23.7244H64.4403Z" fill="#282828"/>
<path fill-rule="evenodd" clip-rule="evenodd" d="M90.0766 23.7244C89.7812 23.7244 89.5409 23.4841 89.5409 23.1887V16.9132C89.5409 16.1115 88.8885 15.4591 88.0868 15.4591H80.1276C79.3259 15.4591 78.6735 16.1115 78.6735 16.9132V19.3622C78.6735 20.1639 79.3259 20.8163 80.1276 20.8163H87.9249C88.0836 20.8163 88.2252 20.9109 88.2859 21.0575C88.3467 21.204 88.3133 21.3713 88.2013 21.4833L86.431 23.2538C86.1273 23.5573 85.7239 23.7244 85.2947 23.7244H80.6087C80.1794 23.7244 79.7757 23.5573 79.4722 23.2538L76.236 20.0176C75.9325 19.7141 75.7654 19.3105 75.7654 18.8811V17.3943C75.7654 16.9649 75.9325 16.5613 76.236 16.2578L79.4722 13.0216C79.7757 12.7181 80.1794 12.551 80.6087 12.551H87.6057C88.0351 12.551 88.4387 12.7181 88.7422 13.0216L89.5409 13.8203V10.0255C89.5409 9.22372 88.8885 8.57137 88.0868 8.57137H80.1276C79.3259 8.57137 78.6735 9.22372 78.6735 10.0255V11.2499C78.6735 11.5454 78.4332 11.7857 78.1378 11.7857H76.3011C76.0057 11.7857 75.7654 11.5454 75.7654 11.2499V10.5065C75.7654 10.0772 75.9325 9.67357 76.236 9.37004L79.4722 6.13387C79.7757 5.83035 80.1794 5.66321 80.6087 5.66321H87.6057C88.0351 5.66321 88.4387 5.83035 88.7422 6.13387L91.9784 9.37004C92.2819 9.67357 92.4491 10.0772 92.4491 10.5065V23.1887C92.4491 23.4841 92.2088 23.7244 91.9133 23.7244H90.0766Z" fill="#282828"/>
<path fill-rule="evenodd" clip-rule="evenodd" d="M51.5051 23.7244C51.2097 23.7244 50.9694 23.4841 50.9694 23.1887V16.9132C50.9694 16.1115 50.317 15.4591 49.5153 15.4591H41.5561C40.7544 15.4591 40.102 16.1115 40.102 16.9132V19.3622C40.102 20.1639 40.7544 20.8163 41.5561 20.8163H49.3533C49.5121 20.8163 49.6536 20.9109 49.7144 21.0575C49.7752 21.204 49.7418 21.3713 49.6298 21.4833L47.8595 23.2538C47.5558 23.5573 47.1523 23.7244 46.7231 23.7244H42.0372C41.6078 23.7244 41.2042 23.5573 40.9007 23.2538L37.6645 20.0176C37.361 19.7141 37.1938 19.3105 37.1938 18.8811V17.3943C37.1938 16.9649 37.361 16.5613 37.6645 16.2578L40.9007 13.0216C41.2042 12.7181 41.6078 12.551 42.0372 12.551H49.0342C49.4635 12.551 49.8672 12.7181 50.1707 13.0216L50.9694 13.8203V10.0255C50.9694 9.22372 50.317 8.57137 49.5153 8.57137H41.5561C40.7544 8.57137 40.102 9.22372 40.102 10.0255V11.2499C40.102 11.5454 39.8617 11.7857 39.5663 11.7857H37.7296C37.4342 11.7857 37.1938 11.5454 37.1938 11.2499V10.5065C37.1938 10.0772 37.361 9.67357 37.6645 9.37004L40.9007 6.13387C41.2042 5.83035 41.6078 5.66321 42.0372 5.66321H49.0342C49.4635 5.66321 49.8672 5.83035 50.1707 6.13387L53.4069 9.37004C53.7104 9.67357 53.8775 10.0772 53.8775 10.5065V23.1887C53.8775 23.4841 53.6372 23.7244 53.3418 23.7244H51.5051Z" fill="#282828"/>
</g>
<defs>
<clipPath id="clip0_115_88">
<rect width="99" height="30" fill="white"/>
</clipPath>
</defs>
</svg>
